<?xml version="1.0" standalone="no"?>
<!DOCTYPE svg PUBLIC "-//W3C//DTD SVG 20010904//EN"
 "http://www.w3.org/TR/2001/REC-SVG-20010904/DTD/svg10.dtd">
<svg version="1.0" xmlns="http://www.w3.org/2000/svg"
 width="512.000000pt" height="512.000000pt" viewBox="0 0 512.000000 512.000000"
 preserveAspectRatio="xMidYMid meet">
<metadata>
Created by potrace 1.14, written by Peter Selinger 2001-2017
</metadata>
<g transform="translate(0.000000,512.000000) scale(0.100000,-0.100000)"
fill="#000000" stroke="none">
<path d="M880 4603 c-247 -32 -411 -273 -355 -520 51 -222 278 -368 495 -319
14 3 37 8 51 12 22 5 53 -22 287 -256 l262 -262 0 -411 0 -412 -32 -14 c-47
-21 -150 -128 -177 -184 -60 -124 -59 -263 4 -386 96 -191 334 -279 535 -198
82 34 140 80 190 154 137 201 85 460 -120 598 l-55 37 -1 477 -1 478 -313 313
-313 313 13 50 c17 68 19 121 4 189 -45 221 -252 370 -474 341z"/>
<path d="M1914 4585 c-184 -65 -295 -222 -290 -412 3 -122 45 -215 135 -302
190 -185 510 -140 653 92 l30 47 673 0 673 0 26 -44 c58 -99 161 -174 273
-199 99 -22 206 -7 305 44 59 30 132 109 167 180 145 298 -69 627 -402 614
-134 -5 -281 -95 -347 -212 l-22 -41 -673 1 -673 0 -41 62 c-105 158 -314 231
-487 170z"/>
<path d="M2600 3752 c-55 -6 -118 -27 -171 -58 -242 -142 -281 -476 -78 -674
25 -25 64 -54 85 -64 l39 -19 0 -538 -1 -538 -261 -261 -261 -261 -68 14
c-348 71 -625 -272 -478 -592 81 -179 272 -277 465 -241 231 44 390 284 336
506 l-17 69 312 312 313 313 1 606 c0 588 1 607 20 620 124 83 175 142 211
247 49 141 14 312 -88 422 -91 98 -229 151 -359 137z"/>
<path d="M3710 3583 c-103 -14 -200 -63 -268 -138 -84 -91 -119 -194 -109
-320 15 -200 155 -352 355 -387 65 -11 157 -4 203 16 12 5 63 -39 196 -171
l180 -178 1 -925 c0 -509 1 -935 1 -947 1 -22 2 -22 169 -20 l167 2 3 1015 2
1015 -229 229 -228 228 14 57 c31 117 -2 268 -81 364 -91 111 -245 177 -376
160z"/>
<path d="M810 3392 c-260 -85 -374 -381 -239 -618 33 -59 112 -136 163 -161
l36 -17 0 -1005 c0 -553 0 -1023 0 -1043 l0 -37 170 1 170 2 0 1041 0 1041 43
24 c160 89 244 293 196 475 -37 140 -149 254 -295 302 -53 17 -183 14 -244 -5z"/>
<path d="M3450 2472 c-131 -17 -251 -94 -317 -204 -66 -110 -79 -249 -33 -372
34 -89 120 -187 197 -224 l32 -15 -2 -231 -2 -231 -295 0 -295 0 -3 -342 -2
-342 170 1 170 1 0 168 0 169 43 1 c23 0 158 0 300 0 l257 1 0 402 0 401 37
20 c61 33 137 115 171 185 50 103 58 182 31 291 -23 86 -52 140 -112 199 -88
88 -230 138 -347 122z"/>
</g>
</svg>
